<?xml version="1.0" encoding="UTF-8" standalone="no"?>
<!-- Created with Inkscape (http://www.inkscape.org/) -->
<svg
   xmlns:dc="http://purl.org/dc/elements/1.1/"
   xmlns:cc="http://web.resource.org/cc/"
   xmlns:rdf="http://www.w3.org/1999/02/22-rdf-syntax-ns#"
   xmlns:svg="http://www.w3.org/2000/svg"
   xmlns="http://www.w3.org/2000/svg"
   xmlns:sodipodi="http://inkscape.sourceforge.net/DTD/sodipodi-0.dtd"
   xmlns:inkscape="http://www.inkscape.org/namespaces/inkscape"
   version="1.0"
   width="122.051"
   height="109.504"
   id="svg1391"
   sodipodi:version="0.32"
   inkscape:version="0.43+devel"
   sodipodi:docname="Triangle.Equilateral.svg"
   sodipodi:docbase="C:\Documents and Settings\Jeremy Cushman\My Documents\My Pictures\Wikipedia Files">
  <metadata
     id="metadata1793">
    <rdf:RDF>
      <cc:Work
         rdf:about="">
        <dc:format>image/svg+xml</dc:format>
        <dc:type
           rdf:resource="http://purl.org/dc/dcmitype/StillImage" />
      </cc:Work>
    </rdf:RDF>
  </metadata>
  <sodipodi:namedview
     inkscape:window-height="541"
     inkscape:window-width="756"
     inkscape:pageshadow="2"
     inkscape:pageopacity="0.0"
     borderopacity="1.0"
     bordercolor="#666666"
     pagecolor="#ffffff"
     id="base"
     inkscape:zoom="3.4062683"
     inkscape:cx="61.025501"
     inkscape:cy="54.751999"
     inkscape:window-x="88"
     inkscape:window-y="116"
     inkscape:current-layer="svg1391" />
  <defs
     id="defs1393" />
  <g
     id="layer1"
     transform="translate(-0.293576,-0.293576)"
     inkscape:r_cx="true"
     inkscape:r_cy="true">
    <g
       transform="matrix(0.850819,0,0,0.850761,-123.7001,-58.25621)"
       style="stroke:#000000;stroke-opacity:1"
       id="g6"
       xml:space="preserve"
       inkscape:r_cx="true"
       inkscape:r_cy="true">
<g
   style="fill:none;stroke:#000000;stroke-width:0.79701102;stroke-linecap:butt;stroke-linejoin:miter;stroke-miterlimit:10;stroke-opacity:1"
   id="g8"
   inkscape:r_cx="true"
   inkscape:r_cy="true">
	<path
   d="M 181.684,130.707 L 146.25,192.078 L 287.98,192.078 L 217.117,69.336 L 181.684,130.707 z "
   style="stroke:#000000;stroke-width:1.72111011;stroke-miterlimit:10;stroke-dasharray:none;stroke-opacity:1"
   id="path10"
   inkscape:r_cx="true"
   inkscape:r_cy="true" />
</g>
<g
   style="fill:none;stroke:#000000;stroke-width:0.79701102;stroke-linecap:butt;stroke-linejoin:miter;stroke-miterlimit:10;stroke-opacity:1"
   id="g12"
   inkscape:r_cx="true"
   inkscape:r_cy="true">
	<path
   d="M 280.895,179.805 C 276.512,182.332 273.809,187.016 273.809,192.078"
   style="stroke:#000000;stroke-width:1.72111011;stroke-miterlimit:10;stroke-dasharray:none;stroke-opacity:1"
   id="path14"
   inkscape:r_cx="true"
   inkscape:r_cy="true" />
</g>
<g
   style="fill:none;stroke:#000000;stroke-width:0.79701102;stroke-linecap:butt;stroke-linejoin:miter;stroke-miterlimit:10;stroke-opacity:1"
   id="g16"
   inkscape:r_cx="true"
   inkscape:r_cy="true">
	<path
   d="M 160.422,192.078 C 160.422,187.016 157.719,182.332 153.336,179.805"
   style="stroke:#000000;stroke-width:1.72111011;stroke-miterlimit:10;stroke-dasharray:none;stroke-opacity:1"
   id="path18"
   inkscape:r_cx="true"
   inkscape:r_cy="true" />
</g>
<g
   style="fill:none;stroke:#000000;stroke-width:0.79701102;stroke-linecap:butt;stroke-linejoin:miter;stroke-miterlimit:10;stroke-opacity:1"
   id="g20"
   inkscape:r_cx="true"
   inkscape:r_cy="true">
	<path
   d="M 210.031,81.609 C 212.184,82.852 214.633,83.508 217.117,83.508 C 219.602,83.508 222.051,82.852 224.203,81.609"
   style="stroke:#000000;stroke-width:1.72111011;stroke-miterlimit:10;stroke-dasharray:none;stroke-opacity:1"
   id="path22"
   inkscape:r_cx="true"
   inkscape:r_cy="true" />
</g>
<g
   style="fill:none;stroke:#000000;stroke-width:0.79701102;stroke-linecap:butt;stroke-linejoin:miter;stroke-miterlimit:10;stroke-opacity:1"
   id="g24"
   inkscape:r_cx="true"
   inkscape:r_cy="true">
	<path
   d="M 217.117,187.828 L 217.117,196.328"
   style="stroke:#000000;stroke-width:1.72111011;stroke-miterlimit:10;stroke-dasharray:none;stroke-opacity:1"
   id="path26"
   inkscape:r_cx="true"
   inkscape:r_cy="true" />
</g>
<g
   style="fill:none;stroke:#000000;stroke-width:0.79701102;stroke-linecap:butt;stroke-linejoin:miter;stroke-miterlimit:10;stroke-opacity:1"
   id="g28"
   inkscape:r_cx="true"
   inkscape:r_cy="true">
	<path
   d="M 178,128.578 L 185.363,132.832"
   style="stroke:#000000;stroke-width:1.72111011;stroke-miterlimit:10;stroke-dasharray:none;stroke-opacity:1"
   id="path30"
   inkscape:r_cx="true"
   inkscape:r_cy="true" />
</g>
<g
   style="fill:none;stroke:#000000;stroke-width:0.79701102;stroke-linecap:butt;stroke-linejoin:miter;stroke-miterlimit:10;stroke-opacity:1"
   id="g32"
   inkscape:r_cx="true"
   inkscape:r_cy="true">
	<path
   d="M 256.23,128.578 L 248.867,132.832"
   style="stroke:#000000;stroke-width:1.72111011;stroke-miterlimit:10;stroke-dasharray:none;stroke-opacity:1"
   id="path34"
   inkscape:r_cx="true"
   inkscape:r_cy="true" />
</g>
<g
   style="fill:#7f7f7f;fill-rule:evenodd;stroke:#000000;stroke-width:0;stroke-linecap:butt;stroke-linejoin:miter;stroke-miterlimit:10;stroke-opacity:1"
   id="g36"
   inkscape:r_cx="true"
   inkscape:r_cy="true">
	
</g>
<g
   style="fill:#7f7f7f;fill-rule:evenodd;stroke:#000000;stroke-width:0;stroke-linecap:butt;stroke-linejoin:miter;stroke-miterlimit:10;stroke-opacity:1"
   id="g40"
   inkscape:r_cx="true"
   inkscape:r_cy="true">
	
</g>
<g
   style="fill:#7f7f7f;fill-rule:evenodd;stroke:#000000;stroke-width:0;stroke-linecap:butt;stroke-linejoin:miter;stroke-miterlimit:10;stroke-opacity:1"
   id="g44"
   inkscape:r_cx="true"
   inkscape:r_cy="true">
	
</g>
<g
   style="fill:#7f7f7f;fill-rule:evenodd;stroke:#000000;stroke-width:0;stroke-linecap:butt;stroke-linejoin:miter;stroke-miterlimit:10;stroke-opacity:1"
   id="g48"
   inkscape:r_cx="true"
   inkscape:r_cy="true">
	
</g>
<g
   style="fill:#7f7f7f;fill-rule:evenodd;stroke:#000000;stroke-width:0;stroke-linecap:butt;stroke-linejoin:miter;stroke-miterlimit:10;stroke-opacity:1"
   id="g52"
   inkscape:r_cx="true"
   inkscape:r_cy="true">
	<path
   d="M 205.82276,99.354763 C 205.82276,94.930766 208.08932,94.228544 209.08249,94.228544 C 209.7446,94.228544 210.41132,94.423118 210.76086,94.948321 C 210.53759,94.948321 209.84006,94.948321 209.84006,95.662247 C 209.84006,96.051395 210.11722,96.383487 210.59148,96.383487 C 211.05496,96.383487 211.36753,96.120154 211.36753,95.611043 C 211.36753,94.702544 210.66385,93.8116 209.06401,93.8116 C 206.74201,93.8116 204.31222,96.06895 204.31222,99.915078 C 204.31222,104.72676 206.52644,105.80643 208.08932,105.80643 C 210.09259,105.80643 211.80637,104.14889 211.80637,101.87398 C 211.80637,99.549337 210.09259,97.988357 208.25254,97.988357 C 206.61575,97.988357 206.00907,99.337208 205.82276,99.828763 L 205.82276,99.354763 z M 208.08932,105.33828 C 206.92986,105.33828 206.37554,104.35517 206.21386,103.98943 C 206.04449,103.53152 205.86433,102.67422 205.86433,101.45119 C 205.86433,100.06869 206.52644,98.338005 208.18017,98.338005 C 209.19643,98.338005 209.72612,98.989023 210.00328,99.582985 C 210.29738,100.22815 210.29738,101.103 210.29738,101.85789 C 210.29738,102.74884 210.29738,103.53152 209.94785,104.20009 C 209.48591,105.0413 208.8238,105.33828 208.08932,105.33828 z M 221.0451,99.846318 C 221.0451,98.39506 220.95579,96.97745 220.29368,95.646154 C 219.53611,94.193433 218.21343,93.8116 217.31111,93.8116 C 216.23942,93.8116 214.93522,94.319248 214.25463,95.771969 C 213.73727,96.869191 213.55095,97.954708 213.55095,99.846318 C 213.55095,101.54335 213.68337,102.81759 214.34548,104.05819 C 215.06148,105.38948 216.33643,105.80643 217.29264,105.80643 C 218.89248,105.80643 219.81327,104.89793 220.34758,103.88556 C 221.00968,102.57182 221.0451,100.85723 221.0451,99.846318 z M 217.29264,105.45824 C 216.7029,105.45824 215.50648,105.1437 215.15695,103.23454 C 214.95216,102.18852 214.95216,100.85723 214.95216,99.634189 C 214.95216,98.200486 214.95216,96.902839 215.2478,95.874376 C 215.56038,94.702544 216.49811,94.159785 217.29264,94.159785 C 217.99016,94.159785 219.06031,94.559174 219.40985,96.06895 C 219.65005,97.062302 219.65005,98.446264 219.65005,99.634189 C 219.65005,100.80602 219.65005,102.13732 219.44526,103.20089 C 219.09727,105.12615 217.93627,105.45824 217.29264,105.45824 z "
   style="fill:#000000;fill-opacity:1;stroke:#000000;stroke-width:0;stroke-opacity:1"
   id="path54"
   inkscape:r_cx="true"
   inkscape:r_cy="true" />
</g>
<g
   style="fill:#7f7f7f;fill-rule:evenodd;stroke:#000000;stroke-width:0;stroke-linecap:butt;stroke-linejoin:miter;stroke-miterlimit:10;stroke-opacity:1"
   id="g56"
   inkscape:r_cx="true"
   inkscape:r_cy="true">
	<path
   d="M 226.82431,92.870949 C 226.82431,91.472545 225.62772,90.359 224.1491,90.359 C 222.66559,90.359 221.469,91.472545 221.469,92.870949 C 221.469,94.269354 222.66559,95.381375 224.1491,95.381375 C 225.62772,95.381375 226.82431,94.269354 226.82431,92.870949 z M 224.1491,94.822318 C 222.99001,94.822318 222.06729,93.954028 222.06729,92.870949 C 222.06729,91.775685 222.99001,90.913487 224.1491,90.913487 C 225.30167,90.913487 226.22601,91.787871 226.22601,92.870949 C 226.22601,93.966214 225.30167,94.822318 224.1491,94.822318 z "
   style="fill:#000000;fill-opacity:1;stroke:#000000;stroke-width:0;stroke-opacity:1"
   id="path58"
   inkscape:r_cx="true"
   inkscape:r_cy="true" />
</g>
</g>  </g>
  <path
     d="M 16.1851,95.025871 C 16.1851,91.262107 18.113533,90.664684 18.958541,90.664684 C 19.521876,90.664684 20.089134,90.83022 20.38653,91.277042 C 20.196567,91.277042 19.603096,91.277042 19.603096,91.884422 C 19.603096,92.215494 19.838909,92.498025 20.242418,92.498025 C 20.636756,92.498025 20.902696,92.273992 20.902696,91.84086 C 20.902696,91.067944 20.303992,90.309964 18.942818,90.309964 C 16.967216,90.309964 14.899904,92.230429 14.899904,95.502565 C 14.899904,99.596157 16.783805,100.5147 18.113533,100.5147 C 19.817953,100.5147 21.27607,99.104527 21.27607,97.169123 C 21.27607,95.191407 19.817953,93.863386 18.252403,93.863386 C 16.859791,93.863386 16.343617,95.010936 16.1851,95.429132 L 16.1851,95.025871 z M 18.113533,100.11641 C 17.127042,100.11641 16.655416,99.280022 16.517856,98.968865 C 16.373753,98.579293 16.220469,97.849936 16.220469,96.809429 C 16.220469,95.633252 16.783805,94.160853 18.19083,94.160853 C 19.055483,94.160853 19.506153,94.714714 19.741966,95.220033 C 19.992192,95.768915 19.992192,96.513203 19.992192,97.155434 C 19.992192,97.913419 19.992192,98.579293 19.694805,99.148086 C 19.301778,99.863755 18.738442,100.11641 18.113533,100.11641 z M 29.136557,95.444067 C 29.136557,94.209393 29.06057,93.003346 28.497234,91.870731 C 27.852679,90.634813 26.727318,90.309964 25.959607,90.309964 C 25.047793,90.309964 23.938155,90.741851 23.359096,91.97777 C 22.918916,92.911243 22.760391,93.834759 22.760391,95.444067 C 22.760391,96.887835 22.873057,97.971909 23.436393,99.027363 C 24.045579,100.15997 25.130331,100.5147 25.943892,100.5147 C 27.305067,100.5147 28.088492,99.741781 28.543093,98.880496 C 29.106421,97.762818 29.136557,96.304111 29.136557,95.444067 z M 25.943892,100.21847 C 25.44213,100.21847 24.424193,99.950873 24.126807,98.326634 C 23.952567,97.436721 23.952567,96.304111 23.952567,95.263596 C 23.952567,94.043857 23.952567,92.93987 24.204104,92.064893 C 24.470053,91.067944 25.267891,90.606186 25.943892,90.606186 C 26.537356,90.606186 27.44786,90.945971 27.745255,92.230429 C 27.949622,93.075535 27.949622,94.252955 27.949622,95.263596 C 27.949622,96.260544 27.949622,97.393162 27.775382,98.298006 C 27.479306,99.935942 26.491505,100.21847 25.943892,100.21847 z "
     style="fill:#000000;fill-opacity:1;fill-rule:evenodd;stroke:#000000;stroke-width:0;stroke-linecap:butt;stroke-linejoin:miter;stroke-miterlimit:10;stroke-opacity:1"
     id="path3541"
     inkscape:r_cx="true"
     inkscape:r_cy="true" />
  <path
     d="M 34.571604,90.715756 C 34.571604,89.526049 33.553522,88.578688 32.295484,88.578688 C 31.033286,88.578688 30.015204,89.526049 30.015204,90.715756 C 30.015204,91.905465 31.033286,92.851529 32.295484,92.851529 C 33.553522,92.851529 34.571604,91.905465 34.571604,90.715756 z M 32.295484,92.375905 C 31.309308,92.375905 30.524241,91.637198 30.524241,90.715756 C 30.524241,89.783948 31.309308,89.050424 32.295484,89.050424 C 33.276113,89.050424 34.062559,89.794316 34.062559,90.715756 C 34.062559,91.647565 33.276113,92.375905 32.295484,92.375905 z "
     style="fill:#000000;fill-opacity:1;fill-rule:evenodd;stroke:#000000;stroke-width:0;stroke-linecap:butt;stroke-linejoin:miter;stroke-miterlimit:10;stroke-opacity:1"
     id="path3543"
     inkscape:r_cx="true"
     inkscape:r_cy="true" />
  <path
     d="M 90.384593,94.717202 C 90.384593,90.953438 92.313026,90.356015 93.158034,90.356015 C 93.721369,90.356015 94.288627,90.521551 94.586023,90.968373 C 94.39606,90.968373 93.802589,90.968373 93.802589,91.575753 C 93.802589,91.906825 94.038402,92.189356 94.441911,92.189356 C 94.836249,92.189356 95.102189,91.965323 95.102189,91.532191 C 95.102189,90.759275 94.503485,90.001295 93.142311,90.001295 C 91.166709,90.001295 89.099397,91.92176 89.099397,95.193896 C 89.099397,99.287488 90.983298,100.20603 92.313026,100.20603 C 94.017446,100.20603 95.475563,98.795858 95.475563,96.860454 C 95.475563,94.882738 94.017446,93.554717 92.451896,93.554717 C 91.059284,93.554717 90.54311,94.702267 90.384593,95.120463 L 90.384593,94.717202 z M 92.313026,99.807741 C 91.326535,99.807741 90.854909,98.971353 90.717349,98.660196 C 90.573246,98.270624 90.419962,97.541267 90.419962,96.50076 C 90.419962,95.324583 90.983298,93.852184 92.390323,93.852184 C 93.254976,93.852184 93.705646,94.406045 93.941459,94.911364 C 94.191685,95.460246 94.191685,96.204534 94.191685,96.846765 C 94.191685,97.60475 94.191685,98.270624 93.894298,98.839417 C 93.501271,99.555086 92.937935,99.807741 92.313026,99.807741 z M 103.33605,95.135398 C 103.33605,93.900724 103.26006,92.694677 102.69673,91.562062 C 102.05217,90.326144 100.92681,90.001295 100.1591,90.001295 C 99.247286,90.001295 98.137648,90.433182 97.558589,91.669101 C 97.118409,92.602574 96.959884,93.52609 96.959884,95.135398 C 96.959884,96.579166 97.07255,97.66324 97.635886,98.718694 C 98.245072,99.851301 99.329824,100.20603 100.14338,100.20603 C 101.50456,100.20603 102.28798,99.433112 102.74259,98.571827 C 103.30591,97.454149 103.33605,95.995442 103.33605,95.135398 z M 100.14338,99.909801 C 99.641623,99.909801 98.623686,99.642204 98.3263,98.017965 C 98.15206,97.128052 98.15206,95.995442 98.15206,94.954927 C 98.15206,93.735188 98.15206,92.631201 98.403597,91.756224 C 98.669546,90.759275 99.467384,90.297517 100.14338,90.297517 C 100.73685,90.297517 101.64735,90.637302 101.94475,91.92176 C 102.14911,92.766866 102.14911,93.944286 102.14911,94.954927 C 102.14911,95.951875 102.14911,97.084493 101.97487,97.989337 C 101.6788,99.627273 100.691,99.909801 100.14338,99.909801 z "
     style="fill:#000000;fill-opacity:1;fill-rule:evenodd;stroke:#000000;stroke-width:0;stroke-linecap:butt;stroke-linejoin:miter;stroke-miterlimit:10;stroke-opacity:1"
     id="path3545"
     inkscape:r_cx="true"
     inkscape:r_cy="true" />
  <path
     d="M 108.7711,90.407087 C 108.7711,89.21738 107.75301,88.270019 106.49498,88.270019 C 105.23278,88.270019 104.2147,89.21738 104.2147,90.407087 C 104.2147,91.596796 105.23278,92.54286 106.49498,92.54286 C 107.75301,92.54286 108.7711,91.596796 108.7711,90.407087 z M 106.49498,92.067236 C 105.5088,92.067236 104.72373,91.328529 104.72373,90.407087 C 104.72373,89.475279 105.5088,88.741755 106.49498,88.741755 C 107.47561,88.741755 108.26205,89.485647 108.26205,90.407087 C 108.26205,91.338896 107.47561,92.067236 106.49498,92.067236 z "
     style="fill:#000000;fill-opacity:1;fill-rule:evenodd;stroke:#000000;stroke-width:0;stroke-linecap:butt;stroke-linejoin:miter;stroke-miterlimit:10;stroke-opacity:1"
     id="path3547"
     inkscape:r_cx="true"
     inkscape:r_cy="true" />
</svg>
